# xmcd
#
# Track frame offsets: 
#        150
#        15960
#        40115
#        57220
#        73472
#        92775
#        119660
#        135675
#        152285
#        171682
#
# Disc length: 2507 seconds
#
# Revision: 0
# Processed by: cddbd v1.5.2PL0 Copyright (c) Steve Scherf et al.
# Submitted via: ExactAudioCopyFreeDBPlugin 1.0
#
DISCID=8809c90a
DTITLE=ปรีชา ชนะภัย - ลอ เล็ก
DYEAR=1900
DGENRE=Thai
TTITLE0=ลาเมืองกรุง
TTITLE1=ลุงคำ
TTITLE2=บ่อยครั้ง
TTITLE3=สัญญาที่ว่าไว้
TTITLE4=วิชาลิง (แพะ ภาค2)
TTITLE5=ไปกับสายลม
TTITLE6=ตกเขียว
TTITLE7=ชาตินักสู้
TTITLE8=จากดินสู่ดิน
TTITLE9=ทะเลใต้ (บรรเลง)
EXTD=
EXTT0=
EXTT1=
EXTT2=
EXTT3=
EXTT4=
EXTT5=
EXTT6=
EXTT7=
EXTT8=
EXTT9=
PLAYORDER=
